<!--?xml version="1.0" standalone="no"?-->
              <svg id="sw-js-blob-svg" viewBox="0 0 100 100" xmlns="http://www.w3.org/2000/svg" version="1.1">
                    <defs> 
                        <linearGradient id="sw-gradient" x1="0" x2="1" y1="1" y2="0">
                            <stop id="stop1" stop-color="rgba(28, 187, 180, 1)" offset="0%"></stop>
                            <stop id="stop2" stop-color="rgba(28, 187, 180, 1)" offset="100%"></stop>
                        </linearGradient>
                    </defs>
                <path fill="url(#sw-gradient)" d="M18.9,-29.8C24.7,-25.6,29.7,-20.7,33.3,-14.7C36.8,-8.6,39,-1.3,38,5.5C37,12.3,33,18.7,27.3,21.7C21.7,24.8,14.4,24.5,8.3,24.8C2.1,25.1,-2.9,26,-10,27C-17,28.1,-26.2,29.4,-29.5,25.6C-32.8,21.8,-30.2,12.9,-29.9,5.2C-29.6,-2.5,-31.7,-9,-29.6,-13.6C-27.6,-18.2,-21.5,-21.1,-15.9,-25.3C-10.2,-29.6,-5.1,-35.3,0.7,-36.5C6.5,-37.6,13.1,-34,18.9,-29.8Z" width="100%" height="100%" transform="translate(50 50)" stroke-width="0" style="transition: all 0.3s ease 0s;"></path>
              </svg>